# xmcd
#
# Track frame offsets:
#	150
#	19923
#	41211
#	64240
#	91772
#	115729
#	138691
#	156452
#	175967
#	195360
#	217865
#
# Disc length: 3166 seconds
#
# Revision: 1
# Processed by: cddbd v1.5.2PL0 Copyright (c) Steve Scherf et al.
# Submitted via: audiograbber 1.83.01
#
DISCID=990c5c0b
DTITLE=Tab Benoit - Power of the Pontchartrain
DYEAR=2007
DGENRE=Blues
TTITLE0=don't make no sense
TTITLE1=good to ya, baby
TTITLE2=shelter me
TTITLE3=power of the pontchartrain
TTITLE4=for what it's worth
TTITLE5=midnight and lonesome
TTITLE6=sac-au-lait fishing
TTITLE7=somebody's got to go
TTITLE8=i'm guiltyy of lovin' you
TTITLE9=addicted
TTITLE10=one foot in the bayou
EXTD=
EXTT0=
EXTT1=
EXTT2=
EXTT3=
EXTT4=
EXTT5=
EXTT6=
EXTT7=
EXTT8=
EXTT9=
EXTT10=
PLAYORDER=
